<svg id="Layer_1" data-name="Layer 1" xmlns="http://www.w3.org/2000/svg" viewBox="0 0 59.08 60.92"><defs><style>.cls-1{fill:#afb9d2;}.cls-2{fill:#d7deed;}.cls-3{fill:#c4dae8;}.cls-4{fill:#f34336;}</style></defs><g id="_1042_Capsule_Medicine_Pills" data-name="1042, Capsule, Medicine, Pills"><path class="cls-1" d="M998.61,492.87a17.46,17.46,0,0,1,15.69-2.94c.15,0,.3.15.44.15l-11,33a17.67,17.67,0,0,1-11.15-11.45,17.25,17.25,0,0,1,.15-10.56A17.66,17.66,0,0,1,998.61,492.87Z" transform="translate(-967.58 -463.08)"/><path class="cls-2" d="M1014.74,490.08a17.4,17.4,0,1,1-11,33Z" transform="translate(-967.58 -463.08)"/><path class="cls-3" d="M1019.29,466.75a12.92,12.92,0,0,1,0,18.19l-5,5h0a17.55,17.55,0,0,0-15.69,2.94l-11.74-11.74,14.23-14.23a12.75,12.75,0,0,1,9.1-3.82A12.88,12.88,0,0,1,1019.29,466.75Z" transform="translate(-967.58 -463.08)"/><path class="cls-4" d="M986.87,481.13l11.74,11.74a17.39,17.39,0,0,0-6,18.77h0l-3.08,3.09a12.87,12.87,0,1,1-18.19-18.2Z" transform="translate(-967.58 -463.08)"/></g></svg>