<svg id="Layer_1" data-name="Layer 1" xmlns="http://www.w3.org/2000/svg" viewBox="0 0 58.07 58.17"><defs><style>.cls-1{fill:#afb9d2;}.cls-2{fill:#2f4a5f;}.cls-3{fill:#d7deed;}.cls-4{fill:#1f3442;}.cls-5{fill:#414a56;}.cls-6{fill:#57606f;}</style></defs><g id="B393_Medical_Medicine_Patient_Tablet" data-name="B393, Medical, Medicine, Patient, Tablet"><polygon class="cls-1" points="37.83 56.24 43.3 57.96 58.06 9.81 37.83 3.54 37.83 56.24"/><path class="cls-2" d="M920.9,464.18a3.8,3.8,0,0,1,2.53,4.75,3.68,3.68,0,0,1-1.82,2.23,4,4,0,0,1-2.43.4V464A11.52,11.52,0,0,1,920.9,464.18Z" transform="translate(-881.24 -422.3)"/><polygon class="cls-3" points="0 0 0 58.17 37.94 58.17 37.94 56.24 37.94 49.37 37.94 41.78 37.94 3.54 37.94 0 0 0"/><path class="cls-4" d="M925.35,449.51a3.8,3.8,0,0,1,2.53,4.76,3.69,3.69,0,0,1-1.82,2.22l-3.54-6.67A3.85,3.85,0,0,1,925.35,449.51Z" transform="translate(-881.24 -422.3)"/><path class="cls-4" d="M929.9,434.84a3.81,3.81,0,0,1,2.53,4.76,3.66,3.66,0,0,1-1.82,2.22L927,435.15A4.17,4.17,0,0,1,929.9,434.84Z" transform="translate(-881.24 -422.3)"/><path class="cls-2" d="M920.59,452.14a3.71,3.71,0,0,1,1.83-2.22l3.64,6.77a3.72,3.72,0,0,1-2.94.31A4,4,0,0,1,920.59,452.14Z" transform="translate(-881.24 -422.3)"/><path class="cls-2" d="M927,435.15l3.64,6.77a3.7,3.7,0,0,1-2.93.31,3.89,3.89,0,0,1-.71-7.08Z" transform="translate(-881.24 -422.3)"/><path class="cls-5" d="M895.1,433a4.43,4.43,0,0,1-1.31,3.14l-6.27-6.27a4.42,4.42,0,0,1,3.13-1.32A4.49,4.49,0,0,1,895.1,433Z" transform="translate(-881.24 -422.3)"/><path class="cls-5" d="M895.1,450.73a4.42,4.42,0,0,1-1.31,3.13l-6.27-6.27a4.42,4.42,0,0,1,3.13-1.32A4.49,4.49,0,0,1,895.1,450.73Z" transform="translate(-881.24 -422.3)"/><path class="cls-5" d="M895.1,468.43a4.41,4.41,0,0,1-1.31,3.13l-6.27-6.27a4.41,4.41,0,0,1,3.13-1.31A4.49,4.49,0,0,1,895.1,468.43Z" transform="translate(-881.24 -422.3)"/><path class="cls-5" d="M914.12,468.43a4.45,4.45,0,0,1-1.31,3.13l-6.28-6.27a4.44,4.44,0,0,1,7.59,3.14Z" transform="translate(-881.24 -422.3)"/><path class="cls-5" d="M914.12,450.73a4.47,4.47,0,0,1-1.31,3.13l-6.28-6.27a4.43,4.43,0,0,1,7.59,3.14Z" transform="translate(-881.24 -422.3)"/><path class="cls-5" d="M914.12,433a4.47,4.47,0,0,1-1.31,3.14l-6.28-6.27a4.43,4.43,0,0,1,7.59,3.13Z" transform="translate(-881.24 -422.3)"/><path class="cls-6" d="M906.53,465.29l6.28,6.27a4.44,4.44,0,1,1-6.28-6.27Z" transform="translate(-881.24 -422.3)"/><path class="cls-6" d="M906.53,447.59l6.28,6.27a4.44,4.44,0,1,1-6.28-6.27Z" transform="translate(-881.24 -422.3)"/><path class="cls-6" d="M906.53,429.89l6.28,6.27a4.44,4.44,0,1,1-6.28-6.27Z" transform="translate(-881.24 -422.3)"/><path class="cls-6" d="M887.52,465.29l6.27,6.27a4.44,4.44,0,0,1-3.14,1.32,4.49,4.49,0,0,1-4.45-4.45A4.9,4.9,0,0,1,887.52,465.29Z" transform="translate(-881.24 -422.3)"/><path class="cls-6" d="M887.52,447.59l6.27,6.27a4.44,4.44,0,0,1-3.14,1.32,4.49,4.49,0,0,1-4.45-4.45A4.9,4.9,0,0,1,887.52,447.59Z" transform="translate(-881.24 -422.3)"/><path class="cls-6" d="M887.52,429.89l6.27,6.27a4.43,4.43,0,0,1-3.14,1.31A4.49,4.49,0,0,1,886.2,433,4.9,4.9,0,0,1,887.52,429.89Z" transform="translate(-881.24 -422.3)"/><path class="cls-1" d="M900.16,476.62a1.33,1.33,0,0,1-1.31-1.31V427.36a1.32,1.32,0,1,1,2.63,0v48.05A1.33,1.33,0,0,1,900.16,476.62Z" transform="translate(-881.24 -422.3)"/></g></svg>